<?xml version="1.0" encoding="UTF-8"?>
<svg id="Calque_1" xmlns="http://www.w3.org/2000/svg" version="1.1" viewBox="0 0 230.22 87.11">
  <!-- Generator: Adobe Illustrator 30.0.0, SVG Export Plug-In . SVG Version: 2.1.1 Build 123)  -->
  <defs>
    <style>
      .st0 {
        fill: #f6a402;
      }

      .st1 {
        fill: #e43317;
      }
    </style>
  </defs>
  <path class="st0" d="M55.49,20.05v-9.03h-3.62c-2,0-3.62,1.62-3.62,3.63v13.08c0,.38-.08.72-.21,1.05.57-1.39,1.58-2.87,3.18-4.46,1.54-1.55,2.98-2.98,4.28-4.27"/>
  <path class="st0" d="M42.96,28.78c-.13-.33-.21-.67-.21-1.05v-13.08c0-2-1.62-3.63-3.62-3.63h-3.62v9.03c1.29,1.28,2.73,2.72,4.27,4.27,1.59,1.59,2.61,3.07,3.18,4.46"/>
  <path class="st0" d="M42.11,35.99c1.08.22,2.24.3,3.39.3s2.31-.08,3.39-.3c-1.36-2.07-1.99-4.43-.86-7.17-.42.97-1.39,1.66-2.53,1.66s-2.1-.69-2.53-1.67c1.12,2.74.5,5.1-.86,7.17"/>
  <path class="st0" d="M36.42,31.53s-.01-.02-.02-.04c0,.01,0,.02.02.04"/>
  <path class="st0" d="M54.59,31.49s-.01.03-.02.04c0-.01.01-.03.02-.04"/>
  <path class="st0" d="M37.31,40.78c.93-.61,1.79-1.36,2.61-2.18.82-.82,1.57-1.69,2.18-2.61-2.43-.5-4.54-1.73-5.68-4.46.39.99.19,2.15-.61,2.96-.8.81-1.97,1.01-2.95.62,2.73,1.14,3.96,3.25,4.46,5.67"/>
  <path class="st0" d="M32.81,35.09c-.32-.13-.62-.34-.89-.6l-9.24-9.25c-1.42-1.41-3.72-1.41-5.13,0l-2.56,2.56s2.52,2.53,6.38,6.38h6.05c2.24,0,4.01.32,5.39.9"/>
  <path class="st0" d="M42.96,28.78s0,.03.01.04c0-.01-.01-.03-.01-.04"/>
  <path class="st0" d="M30.14,41.65s-.03-.01-.04-.02c.01,0,.02,0,.04.02"/>
  <path class="st0" d="M35.51,20.05c-3.86-3.86-6.38-6.38-6.38-6.38l-2.56,2.56c-1.41,1.41-1.41,3.71,0,5.12l9.25,9.25c.26.26.46.57.6.89-.58-1.38-.9-3.15-.9-5.39v-6.04"/>
  <path class="st1" d="M42.11,35.99c1.36-2.07,1.99-4.43.86-7.17,0-.01-.01-.03-.01-.04-.57-1.39-1.59-2.87-3.18-4.46-1.54-1.55-2.98-2.98-4.27-4.27v6.04c0,2.24.33,4.02.9,5.39,0,.01,0,.03.02.04,1.15,2.74,3.25,3.96,5.68,4.46"/>
  <path class="st0" d="M37.31,47.57c.22-1.09.3-2.24.3-3.4s-.08-2.3-.3-3.4c-2.07,1.37-4.43,1.99-7.17.87.98.43,1.66,1.4,1.66,2.53s-.69,2.1-1.66,2.53c2.74-1.12,5.1-.5,7.17.87"/>
  <path class="st0" d="M21.37,34.18h-9.02v3.61c0,2.01,1.62,3.63,3.62,3.63h13.08c.37,0,.73.07,1.05.2-1.38-.57-2.87-1.59-4.45-3.18-1.55-1.54-2.99-2.98-4.28-4.27"/>
  <path class="st0" d="M32.85,53.25s-.03.01-.04.02c.01,0,.02,0,.04-.02"/>
  <path class="st0" d="M32.81,35.09s.03.01.04.02c-.01,0-.03-.02-.04-.02"/>
  <path class="st0" d="M30.1,46.72c-.32.13-.68.21-1.05.21h-13.08c-2,0-3.62,1.62-3.62,3.62v3.62h9.02c1.29-1.29,2.73-2.73,4.27-4.27,1.59-1.59,3.07-2.61,4.45-3.18"/>
  <path class="st1" d="M37.31,40.78c-.5-2.42-1.73-4.53-4.46-5.67-.02,0-.03-.01-.04-.02-1.38-.58-3.15-.9-5.39-.9h-6.05c1.29,1.29,2.73,2.72,4.27,4.27,1.59,1.59,3.07,2.61,4.45,3.18.01,0,.03,0,.04.02,2.74,1.12,5.1.5,7.17-.87"/>
  <path class="st0" d="M36.4,56.87c-.13.32-.33.62-.59.88l-9.24,9.25c-1.42,1.41-1.42,3.71,0,5.12l2.56,2.56s2.52-2.52,6.38-6.39v-6.04c0-2.24.33-4.01.9-5.39"/>
  <path class="st0" d="M21.37,54.17l-6.38,6.38,2.56,2.56c1.41,1.41,3.71,1.41,5.13,0l9.25-9.25c.26-.26.57-.46.89-.6-1.38.58-3.15.9-5.4.9h-6.05"/>
  <path class="st0" d="M42.97,59.53s-.01.02-.01.03c0,0,0-.02.01-.03"/>
  <path class="st0" d="M42.11,52.36c-.61-.92-1.37-1.79-2.19-2.61-.82-.82-1.68-1.58-2.61-2.18-.5,2.42-1.73,4.53-4.46,5.68.99-.39,2.16-.19,2.96.61.8.8,1.01,1.97.61,2.96,1.15-2.73,3.25-3.96,5.68-4.46"/>
  <path class="st0" d="M30.1,46.72s.03-.01.04-.02c-.02,0-.03.01-.04.02"/>
  <path class="st1" d="M37.31,47.57c-2.07-1.37-4.43-1.99-7.17-.87-.01,0-.03.01-.04.02-1.39.57-2.87,1.59-4.45,3.18-1.55,1.54-2.98,2.98-4.27,4.27h6.05c2.25,0,4.01-.33,5.4-.9.01,0,.02,0,.04-.02,2.73-1.14,3.96-3.25,4.46-5.68"/>
  <path class="st0" d="M36.4,56.87s.01-.03.02-.04c0,.01-.01.03-.02.04"/>
  <path class="st0" d="M54.57,56.83s0,.02.01.03c0,0,0-.02-.01-.03"/>
  <path class="st0" d="M48.04,59.58c.13.32.21.67.21,1.04v13.09c0,2,1.62,3.62,3.62,3.62h3.62v-9.03c-1.29-1.29-2.73-2.73-4.27-4.27-1.59-1.59-2.6-3.07-3.18-4.45"/>
  <path class="st0" d="M35.51,68.3v9.03h3.62c2,0,3.62-1.62,3.62-3.62v-13.09c0-.37.07-.72.21-1.05-.57,1.39-1.59,2.87-3.18,4.46-1.54,1.54-2.98,2.98-4.27,4.27"/>
  <path class="st0" d="M48.89,52.36c-1.08-.22-2.23-.3-3.39-.3s-2.31.07-3.39.3c1.36,2.07,1.99,4.43.86,7.17.42-.97,1.39-1.66,2.53-1.66s2.1.69,2.52,1.66c-1.12-2.74-.5-5.1.87-7.17"/>
  <path class="st1" d="M42.11,52.36c-2.43.5-4.53,1.73-5.68,4.46,0,.01-.01.03-.02.04-.57,1.38-.9,3.15-.9,5.39v6.04c1.29-1.29,2.73-2.73,4.27-4.27,1.59-1.59,2.61-3.07,3.18-4.46,0,0,0-.02.01-.03,1.12-2.74.5-5.1-.86-7.17"/>
  <path class="st0" d="M60.86,46.7s.02.01.03.01c-.01,0-.02,0-.03-.01"/>
  <path class="st0" d="M48.04,59.58s-.01-.03-.02-.05c0,.02.01.03.02.05"/>
  <path class="st0" d="M55.49,68.3c3.86,3.86,6.38,6.39,6.38,6.39l2.56-2.56c1.42-1.42,1.42-3.71,0-5.13l-9.25-9.25c-.27-.26-.46-.57-.6-.89.58,1.39.91,3.15.91,5.4v6.04"/>
  <path class="st0" d="M53.69,47.57c-.93.61-1.8,1.36-2.61,2.18-.82.82-1.58,1.69-2.19,2.61,2.43.5,4.54,1.73,5.69,4.47-.4-1-.19-2.17.61-2.96.8-.8,1.97-1.01,2.95-.61-2.73-1.14-3.95-3.25-4.45-5.68"/>
  <path class="st0" d="M58.18,53.27c.32.13.62.33.88.59l9.25,9.25c1.42,1.41,3.71,1.41,5.13,0l2.55-2.56s-2.51-2.52-6.38-6.38h-6.05c-2.24,0-4-.33-5.39-.9"/>
  <path class="st1" d="M48.89,52.36c-1.36,2.07-1.98,4.43-.87,7.17,0,.02.01.03.02.05.57,1.38,1.59,2.86,3.18,4.45,1.54,1.54,2.98,2.98,4.27,4.27v-6.04c0-2.25-.33-4.02-.91-5.4,0-.01,0-.02,0-.03-1.15-2.74-3.25-3.97-5.69-4.46"/>
  <path class="st0" d="M58.18,53.27s-.03-.01-.05-.02c.02,0,.03.02.05.02"/>
  <path class="st0" d="M69.62,54.17h9.02v-3.62c0-2-1.62-3.62-3.62-3.62h-13.09c-.37,0-.73-.07-1.05-.21,1.39.57,2.86,1.59,4.46,3.18,1.55,1.54,2.98,2.98,4.27,4.27"/>
  <path class="st0" d="M60.85,41.65c-2.74,1.12-5.1.51-7.17-.87-.23,1.09-.3,2.24-.3,3.4s.08,2.31.3,3.4c2.07-1.37,4.43-1.99,7.17-.87-.98-.42-1.66-1.39-1.66-2.53s.68-2.1,1.66-2.53"/>
  <path class="st0" d="M58.14,35.11s.02-.01.03-.02c-.01,0-.02.01-.03.02"/>
  <path class="st0" d="M60.9,41.63c.32-.13.67-.2,1.04-.2h13.09c2,0,3.62-1.62,3.62-3.63v-3.61h-9.03c-1.29,1.29-2.73,2.72-4.27,4.27-1.59,1.59-3.07,2.61-4.45,3.18"/>
  <path class="st1" d="M53.69,47.57c.5,2.42,1.72,4.53,4.45,5.68.02,0,.03.01.05.02,1.38.57,3.15.9,5.39.9h6.04c-1.29-1.29-2.73-2.73-4.27-4.27-1.6-1.59-3.07-2.61-4.46-3.18-.01,0-.02,0-.03-.02-2.74-1.12-5.11-.5-7.17.87"/>
  <path class="st0" d="M60.9,41.63s-.03.01-.05.02c.01,0,.03-.01.05-.02"/>
  <path class="st0" d="M48.02,28.82s0-.03.02-.04c0,.01,0,.03-.02.04"/>
  <path class="st0" d="M54.59,31.49c.13-.31.33-.62.59-.89l9.25-9.25c1.41-1.41,1.41-3.71,0-5.12l-2.56-2.56s-2.52,2.53-6.38,6.38v6.04c0,2.24-.33,4.01-.9,5.39"/>
  <path class="st0" d="M69.62,34.18c3.86-3.86,6.38-6.38,6.38-6.38l-2.55-2.56c-1.42-1.41-3.72-1.41-5.13,0l-9.25,9.25c-.27.27-.57.47-.89.61,1.38-.58,3.15-.9,5.4-.9h6.05"/>
  <path class="st0" d="M48.89,35.99c.61.92,1.37,1.79,2.19,2.61.81.82,1.68,1.58,2.61,2.18.5-2.43,1.73-4.54,4.46-5.67-.99.38-2.16.18-2.96-.62-.8-.8-1.01-1.96-.61-2.96-1.15,2.74-3.25,3.96-5.68,4.46"/>
  <path class="st1" d="M48.89,35.99c2.43-.5,4.54-1.73,5.68-4.46,0-.01.01-.03.02-.04.57-1.38.9-3.15.9-5.39v-6.04c-1.29,1.28-2.73,2.72-4.27,4.27-1.59,1.59-2.6,3.07-3.18,4.46,0,.01,0,.03-.02.04-1.12,2.73-.5,5.1.86,7.17"/>
  <path class="st1" d="M53.69,40.78c2.07,1.37,4.43,1.99,7.17.87.01,0,.03-.01.05-.02,1.38-.57,2.86-1.59,4.45-3.18,1.55-1.54,2.98-2.98,4.27-4.27h-6.04c-2.25,0-4.01.32-5.4.9-.01,0-.02.01-.03.02-2.73,1.14-3.96,3.25-4.46,5.67"/>
  <path class="st1" d="M107.23,32c-2.12,0-3.85,1.72-3.85,3.84v13.87c0,1.61-1.3,2.91-2.91,2.91s-2.91-1.3-2.91-2.91v-13.87c0-2.13-1.72-3.84-3.84-3.84h-3.84v15.98c0,9.25,5.24,10.81,10.59,10.81s10.61-1.56,10.61-10.81v-15.98h-3.84Z"/>
  <path class="st1" d="M210.27,38.69c4.31,0,8.94,1.63,7.62,4.55l-1.18,2.16c-2.21-1.66-6.75-2.82-6.75-.8,0,1.01,1.53,1.37,2.15,1.51,3.04.69,6.12,1.65,6.12,5.62,0,2.74-1.49,6.79-8.47,6.79-3.88,0-9.47-1.25-7.09-5.47.37-.64.99-1.71.99-1.71,0,0,1.63,1.75,5.3,1.94,1.96.1,2.82-1.82.37-2.58-1.93-.59-6.95-1.28-6.95-5.88s4.42-6.14,7.88-6.14"/>
  <path class="st1" d="M151.81,31.11h-3.56v23.03c0,2.26,1.84,4.09,4.1,4.09h3.56v-23.03c0-2.28-1.84-4.1-4.1-4.1"/>
  <path class="st1" d="M140.4,39.08h-3.56v15.06c0,2.27,1.84,4.1,4.1,4.1h3.56v-15.06c0-2.27-1.84-4.1-4.1-4.1"/>
  <path class="st1" d="M136.82,33.41c0-2.12,1.73-3.85,3.85-3.85s3.85,1.73,3.85,3.85-1.73,3.87-3.85,3.87-3.85-1.74-3.85-3.87"/>
  <path class="st1" d="M169.58,52.51c0,.42-.19.73-.54.94-.35.2-.76.3-1.22.3-1.29,0-1.8-.82-1.8-1.77,0-2.2,2.15-2.73,3.56-2.73v3.26ZM174.78,40.47c-1.28-1.18-3.41-1.78-6.39-1.78-5.69,0-7.58,1.8-7.97,2.3-.7.88-.27,1.97-.04,2.37l.98,1.75c4.62-2.39,8.1-1.82,8.1-.14v.83c-7.57,0-10.5,3.05-10.5,6.72,0,5.83,5.27,5.87,6.06,5.87,2.93,0,4.21-1.08,5.11-1.83.11.95.92,1.7,1.9,1.7h4.71v-12.1c0-2.6-.65-4.48-1.95-5.68"/>
  <path class="st1" d="M189.23,43.73c-.4,0-.74.09-1.04.25v8.45c.3.15.64.24,1.04.24,2.01,0,2.63-2.25,2.63-4.46s-.62-4.48-2.63-4.48M199.73,48.57c0,4.92-1.75,9.91-7.44,9.91-2.02,0-3.54-.63-4.67-1.66-.22.82-.96,1.42-1.85,1.42h-5.25v-27.13h3.56c2.26,0,4.1,1.83,4.1,4.1v4.65c1.05-.75,2.4-1.21,4.1-1.21,5.69,0,7.44,4.99,7.44,9.91"/>
  <path class="st1" d="M126.85,38.69c-1.98,0-3.74.93-4.88,2.38-.71-1.19-2.02-1.99-3.51-1.99h-3.55v18.87h7.66v-11.86c0-.78.64-1.42,1.41-1.42s1.42.63,1.42,1.42v8.06c0,2.26,1.84,4.1,4.1,4.1h3.56v-13.36c0-3.43-2.77-6.2-6.2-6.2"/>
</svg>